<svg width="47" height="44" viewBox="0 0 47 44" fill="none" xmlns="http://www.w3.org/2000/svg">
<path d="M16.2692 23.4176C16.2692 23.9486 16.1102 24.4676 15.8123 24.9091C15.5143 25.3506 15.0908 25.6947 14.5954 25.8979C14.0999 26.1011 13.5547 26.1542 13.0287 26.0507C12.5027 25.9471 12.0196 25.6914 11.6403 25.3159C11.2611 24.9405 11.0029 24.4621 10.8983 23.9413C10.7936 23.4206 10.8473 22.8808 11.0526 22.3902C11.2578 21.8996 11.6053 21.4804 12.0512 21.1854C12.4972 20.8904 13.0214 20.7329 13.5577 20.7329C14.2768 20.7329 14.9665 21.0158 15.475 21.5192C15.9836 22.0227 16.2692 22.7056 16.2692 23.4176ZM33.4423 20.7329C32.906 20.7329 32.3818 20.8904 31.9359 21.1854C31.4899 21.4804 31.1424 21.8996 30.9372 22.3902C30.7319 22.8808 30.6782 23.4206 30.7829 23.9413C30.8875 24.4621 31.1457 24.9405 31.525 25.3159C31.9042 25.6914 32.3873 25.9471 32.9133 26.0507C33.4393 26.1542 33.9845 26.1011 34.48 25.8979C34.9754 25.6947 35.3989 25.3506 35.6969 24.9091C35.9948 24.4676 36.1538 23.9486 36.1538 23.4176C36.1538 22.7056 35.8682 22.0227 35.3597 21.5192C34.8511 21.0158 34.1615 20.7329 33.4423 20.7329ZM47 3.57343V22.5227C47 34.3576 36.4476 44 23.5 44C10.5524 44 0 34.3576 0 22.5227V3.57343C0.00122197 2.86635 0.213923 2.17547 0.611269 1.58794C1.00862 1.00041 1.57281 0.542558 2.23267 0.272135C2.89253 0.00171148 3.61851 -0.0691643 4.31901 0.0684478C5.01951 0.20606 5.66315 0.545995 6.16875 1.04537L10.0553 4.89339C11.7681 3.80896 13.6132 2.94443 15.5462 2.32059L15.9077 2.20873C20.8481 0.658261 26.1519 0.658261 31.0923 2.20873L31.4538 2.32059C33.3868 2.94443 35.2319 3.80896 36.9447 4.89339L40.8312 1.04537C41.3368 0.545995 41.9805 0.20606 42.681 0.0684478C43.3815 -0.0691643 44.1075 0.00171148 44.7673 0.272135C45.4272 0.542558 45.9914 1.00041 46.3887 1.58794C46.7861 2.17547 46.9988 2.86635 47 3.57343ZM43.3846 3.57343L38.4361 8.49531C38.1242 8.79688 37.7139 8.97834 37.2789 9.00705C36.844 9.03576 36.413 8.90983 36.0635 8.65192C34.9667 7.84221 33.7849 7.15213 32.5385 6.59368V11.784C32.5385 12.2587 32.348 12.7139 32.009 13.0496C31.67 13.3852 31.2102 13.5738 30.7308 13.5738C30.2513 13.5738 29.7915 13.3852 29.4525 13.0496C29.1135 12.7139 28.9231 12.2587 28.9231 11.784V5.31846C27.7381 5.00859 26.5286 4.79903 25.3077 4.69204V11.784C25.3077 12.2587 25.1172 12.7139 24.7782 13.0496C24.4392 13.3852 23.9794 13.5738 23.5 13.5738C23.0206 13.5738 22.5608 13.3852 22.2218 13.0496C21.8828 12.7139 21.6923 12.2587 21.6923 11.784V4.69204C20.4714 4.79903 19.2619 5.00859 18.0769 5.31846V11.784C18.0769 12.2587 17.8865 12.7139 17.5475 13.0496C17.2085 13.3852 16.7487 13.5738 16.2692 13.5738C15.7898 13.5738 15.33 13.3852 14.991 13.0496C14.652 12.7139 14.4615 12.2587 14.4615 11.784V6.59368C13.2151 7.15213 12.0333 7.84221 10.9365 8.65192C10.587 8.90983 10.156 9.03576 9.72106 9.00705C9.28611 8.97834 8.87579 8.79688 8.56394 8.49531L3.61538 3.57343V22.5227C3.61538 31.8519 11.5692 39.5256 21.6923 40.3533V35.7894L18.5966 32.7468C18.3084 32.399 18.1611 31.9576 18.1834 31.5082C18.2056 31.0589 18.3959 30.6339 18.7172 30.3157C19.0385 29.9976 19.4678 29.8092 19.9217 29.7872C20.3755 29.7651 20.8214 29.9109 21.1726 30.1964L23.5 32.5231L25.8274 30.1964C26.1786 29.9109 26.6245 29.7651 27.0783 29.7872C27.5322 29.8092 27.9615 29.9976 28.2828 30.3157C28.6041 30.6339 28.7944 31.0589 28.8167 31.5082C28.8389 31.9576 28.6916 32.399 28.4034 32.7468L25.3077 35.7894V40.3533C35.4308 39.5256 43.3846 31.8519 43.3846 22.5227V3.57343Z" fill="#FEF9ED"/>
</svg>
