<svg width="35" height="35" viewBox="0 0 35 35" fill="none" xmlns="http://www.w3.org/2000/svg">
<path d="M33.5972 8.16084L24.2568 17.5065L33.5972 26.8521C34.0418 27.2954 34.3946 27.8222 34.6354 28.4023C34.8761 28.9824 35 29.6043 35 30.2324C35 30.8605 34.8761 31.4824 34.6354 32.0625C34.3946 32.6425 34.0418 33.1694 33.5972 33.6127C32.6971 34.5016 31.4834 35 30.2188 35C28.9541 35 27.7404 34.5016 26.8403 33.6127L17.5 24.2671L8.15966 33.6127C7.25962 34.5016 6.04588 35 4.78124 35C3.51661 35 2.30287 34.5016 1.40282 33.6127C0.958176 33.1694 0.605371 32.6425 0.364643 32.0625C0.123915 31.4824 0 30.8605 0 30.2324C0 29.6043 0.123915 28.9824 0.364643 28.4023C0.605371 27.8222 0.958176 27.2954 1.40282 26.8521L10.7432 17.5065L1.40282 8.16084C0.506811 7.26432 0.00343873 6.04838 0.00343873 4.78051C0.00343873 3.51264 0.506811 2.2967 1.40282 1.40018C2.29884 0.503658 3.51409 0 4.78124 0C6.0484 0 7.26365 0.503658 8.15966 1.40018L17.5 10.7458L26.8403 1.40018C27.7363 0.503658 28.9516 0 30.2188 0C31.4859 0 32.7012 0.503658 33.5972 1.40018C34.4932 2.2967 34.9966 3.51264 34.9966 4.78051C34.9966 6.04838 34.4932 7.26432 33.5972 8.16084Z" fill="#FEF9ED"/>
</svg>
