<svg width="40" height="63" viewBox="0 0 40 63" fill="none" xmlns="http://www.w3.org/2000/svg">
<path d="M2.49179 33.9913L0.65218 34.776L2.49179 33.9913C2.16822 33.2328 2 32.4091 2 31.5C2 30.5909 2.16822 29.7672 2.49179 29.0087C2.8163 28.248 3.3157 27.5094 4.02619 26.7957L26.6349 4.08177C27.7916 2.91965 28.9241 2.31242 30.0302 2.09569C31.1346 1.8793 32.3968 2.016 33.8768 2.65497L33.8804 2.65653C35.3638 3.29347 36.3563 4.12566 36.9914 5.10103C37.628 6.07867 38 7.34521 38 9.00453V53.9955C38 55.6548 37.628 56.9213 36.9914 57.899C36.3563 58.8743 35.3638 59.7065 33.8804 60.3435L33.8768 60.345C32.3968 60.984 31.1346 61.1207 30.0302 60.9043C28.9241 60.6876 27.7916 60.0803 26.6349 58.9182L4.02619 36.2043L2.62216 37.6019L4.02619 36.2043C3.3157 35.4906 2.8163 34.752 2.49179 33.9913Z" fill="#F48989" stroke="#EB5E5E" stroke-width="4"/>
</svg>
