<svg width="663" height="88" viewBox="0 0 663 88" fill="none" xmlns="http://www.w3.org/2000/svg">
<mask id="path-1-outside-1_666_862" maskUnits="userSpaceOnUse" x="-0.305176" y="-0.48877" width="663" height="89" fill="black">
<rect fill="white" x="-0.305176" y="-0.48877" width="663" height="89"/>
<path d="M18.3565 77.8661C15.5334 77.8661 13.5124 77.4491 12.2933 76.615C11.0743 75.7168 10.3364 74.5939 10.0798 73.2466C9.82315 71.8992 9.69482 70.4877 9.69482 69.012V19.0631C9.69482 17.6516 9.82315 16.3042 10.0798 15.021C10.3364 13.7378 11.0743 12.6792 12.2933 11.8451C13.5765 11.011 15.6617 10.5939 18.549 10.5939C21.372 10.5939 23.2968 10.9468 24.3234 11.6526C25.35 12.3583 26.2803 13.2566 27.1144 14.3473L51.1745 46.6842V19.0631C51.1745 17.6516 51.3028 16.3042 51.5595 15.021C51.8803 13.7378 52.6502 12.6792 53.8693 11.8451C55.0883 11.011 57.1414 10.5939 60.0287 10.5939C62.98 10.5939 65.0332 11.0431 66.1881 11.9413C67.4071 12.7754 68.145 13.8661 68.4016 15.2135C68.6582 16.5609 68.7866 17.9724 68.7866 19.4481V69.1082C68.7866 70.5198 68.6582 71.8992 68.4016 73.2466C68.145 74.5939 67.4071 75.7168 66.1881 76.615C64.969 77.4491 62.8838 77.8661 59.9324 77.8661C57.751 77.8661 56.0828 77.6736 54.9279 77.2887C53.8372 76.9679 52.9069 76.2942 52.1369 75.2676L27.2106 42.3533V69.1082C27.2106 70.5198 27.0823 71.8992 26.8257 73.2466C26.569 74.5939 25.8312 75.7168 24.6121 76.615C23.3931 77.4491 21.3079 77.8661 18.3565 77.8661Z"/>
<path d="M83.8888 77.8661C81.0016 77.8661 78.9485 77.4491 77.7294 76.615C76.5104 75.7168 75.7725 74.5939 75.5159 73.2466C75.2592 71.835 75.1309 70.4235 75.1309 69.012V19.2556C75.1309 15.9193 75.7725 13.6416 77.0557 12.4225C78.4031 11.1393 80.777 10.4977 84.1775 10.4977H119.402C120.877 10.4977 122.257 10.626 123.54 10.8827C124.887 11.1393 125.978 11.8771 126.812 13.0962C127.71 14.3152 128.159 16.4005 128.159 19.3518C128.159 22.2391 127.71 24.2922 126.812 25.5112C125.978 26.7303 124.887 27.4681 123.54 27.7248C122.193 27.9814 120.781 28.1097 119.305 28.1097H92.743V36.6751H110.547C112.023 36.6751 113.338 36.8035 114.493 37.0601C115.648 37.2526 116.579 37.8621 117.284 38.8887C117.99 39.9152 118.343 41.7117 118.343 44.2782C118.343 46.7162 117.99 48.4807 117.284 49.5714C116.579 50.598 115.616 51.2075 114.397 51.4C113.178 51.5924 111.831 51.6887 110.355 51.6887H92.743V60.2541H119.402C120.877 60.2541 122.257 60.3824 123.54 60.6391C124.887 60.8957 125.978 61.6335 126.812 62.8526C127.71 64.0716 128.159 66.1568 128.159 69.1082C128.159 71.9954 127.71 74.0486 126.812 75.2676C125.978 76.4867 124.887 77.2245 123.54 77.4812C122.193 77.7378 120.781 77.8661 119.305 77.8661H83.8888Z"/>
<path d="M142.07 77.8661C139.183 77.8661 137.13 77.4491 135.911 76.615C134.692 75.7168 133.954 74.5939 133.697 73.2466C133.44 71.835 133.312 70.4235 133.312 69.012V19.2556C133.312 17.8441 133.44 16.4646 133.697 15.1172C133.954 13.7699 134.692 12.6792 135.911 11.8451C137.13 10.9468 139.215 10.4977 142.166 10.4977C145.118 10.4977 147.171 10.9468 148.326 11.8451C149.545 12.6792 150.283 13.7699 150.539 15.1172C150.796 16.4646 150.924 17.8761 150.924 19.3518V32.633L167.67 13.4812C169.146 11.8771 170.525 10.7543 171.808 10.1127C173.092 9.47113 174.407 9.34281 175.754 9.72777C177.102 10.1127 178.577 11.0751 180.181 12.615C182.812 14.9889 184.159 17.0741 184.223 18.8706C184.288 20.6671 183.229 22.7203 181.047 25.03L162.184 44.2782L181.144 63.2375C183.518 65.6115 184.608 67.7609 184.416 69.6857C184.288 71.5463 182.908 73.5674 180.278 75.7488C178.353 77.2887 176.717 78.2511 175.369 78.636C174.022 79.021 172.771 78.8606 171.616 78.1548C170.461 77.5132 169.178 76.3584 167.766 74.6902L150.924 55.5383V69.1082C150.924 70.5198 150.796 71.8992 150.539 73.2466C150.283 74.5939 149.545 75.7168 148.326 76.615C147.107 77.4491 145.021 77.8661 142.07 77.8661Z"/>
<path d="M215.248 78.9248C210.565 78.9248 206.17 78.0586 202.063 76.3263C198.021 74.5298 194.46 72.0596 191.381 68.9157C188.301 65.7719 185.863 62.1468 184.066 58.0406C182.334 53.8701 181.468 49.4431 181.468 44.7594C181.468 39.8832 182.302 35.3278 183.97 31.0932C185.702 26.8586 188.076 23.1373 191.092 19.9293C194.107 16.7213 197.604 14.219 201.582 12.4225C205.624 10.626 209.923 9.72777 214.478 9.72777C219.162 9.72777 223.525 10.626 227.567 12.4225C231.673 14.1548 235.266 16.5929 238.346 19.7368C241.426 22.8807 243.832 26.5699 245.564 30.8045C247.296 34.9749 248.162 39.4982 248.162 44.3744C248.162 49.1223 247.296 53.5814 245.564 57.7518C243.896 61.9223 241.522 65.6115 238.442 68.8195C235.427 71.9634 231.93 74.4335 227.952 76.23C224.038 78.0265 219.804 78.9248 215.248 78.9248ZM214.767 61.3127C216.948 61.3127 219.002 60.8957 220.926 60.0616C222.851 59.1634 224.519 57.9764 225.931 56.5007C227.407 54.9609 228.529 53.1644 229.299 51.1112C230.133 48.9939 230.55 46.7483 230.55 44.3744C230.55 42.0005 230.133 39.7869 229.299 37.7338C228.465 35.6807 227.31 33.8842 225.835 32.3443C224.423 30.7403 222.755 29.5213 220.83 28.6872C218.97 27.7889 216.981 27.3398 214.863 27.3398C212.682 27.3398 210.629 27.7889 208.704 28.6872C206.843 29.5213 205.175 30.7403 203.699 32.3443C202.288 33.8842 201.165 35.6807 200.331 37.7338C199.497 39.7869 199.08 42.0005 199.08 44.3744C199.08 46.6842 199.497 48.8656 200.331 50.9188C201.165 52.9719 202.288 54.8005 203.699 56.4045C205.175 57.9443 206.843 59.1634 208.704 60.0616C210.629 60.8957 212.65 61.3127 214.767 61.3127Z"/>
<path d="M324.968 10.4015C326.187 10.4015 327.342 10.4977 328.432 10.6902C329.523 10.8827 330.421 11.4922 331.127 12.5188C331.897 13.5453 332.282 15.3097 332.282 17.812C332.282 20.2501 331.897 22.0145 331.127 23.1052C330.421 24.1318 329.491 24.7413 328.336 24.9338C327.245 25.1263 326.091 25.2225 324.872 25.2225H311.59V69.3007C311.59 70.7122 311.462 72.0917 311.205 73.4391C310.949 74.7223 310.211 75.7809 308.992 76.615C307.837 77.4491 305.784 77.8661 302.832 77.8661C300.009 77.8661 297.988 77.4491 296.769 76.615C295.55 75.7168 294.812 74.626 294.556 73.3428C294.363 71.9954 294.267 70.616 294.267 69.2045V25.2225H280.89C279.735 25.2225 278.58 25.1263 277.425 24.9338C276.334 24.6771 275.404 24.0355 274.634 23.009C273.928 21.9824 273.575 20.218 273.575 17.7157C273.575 15.2776 273.928 13.5453 274.634 12.5188C275.404 11.4922 276.366 10.8827 277.521 10.6902C278.676 10.4977 279.831 10.4015 280.986 10.4015H324.968Z"/>
<path d="M346.107 77.8661C343.22 77.8661 341.166 77.4491 339.947 76.615C338.728 75.7168 337.991 74.5939 337.734 73.2466C337.477 71.835 337.349 70.4235 337.349 69.012V19.2556C337.349 15.9193 337.991 13.6416 339.274 12.4225C340.621 11.1393 342.995 10.4977 346.396 10.4977H381.62C383.095 10.4977 384.475 10.626 385.758 10.8827C387.105 11.1393 388.196 11.8771 389.03 13.0962C389.928 14.3152 390.378 16.4005 390.378 19.3518C390.378 22.2391 389.928 24.2922 389.03 25.5112C388.196 26.7303 387.105 27.4681 385.758 27.7248C384.411 27.9814 382.999 28.1097 381.523 28.1097H354.961V36.6751H372.765C374.241 36.6751 375.556 36.8035 376.711 37.0601C377.866 37.2526 378.797 37.8621 379.502 38.8887C380.208 39.9152 380.561 41.7117 380.561 44.2782C380.561 46.7162 380.208 48.4807 379.502 49.5714C378.797 50.598 377.834 51.2075 376.615 51.4C375.396 51.5924 374.049 51.6887 372.573 51.6887H354.961V60.2541H381.62C383.095 60.2541 384.475 60.3824 385.758 60.6391C387.105 60.8957 388.196 61.6335 389.03 62.8526C389.928 64.0716 390.378 66.1568 390.378 69.1082C390.378 71.9954 389.928 74.0486 389.03 75.2676C388.196 76.4867 387.105 77.2245 385.758 77.4812C384.411 77.7378 382.999 77.8661 381.523 77.8661H346.107Z"/>
<path d="M403.133 77.8661C400.246 77.8661 398.193 77.4491 396.974 76.615C395.755 75.7168 395.017 74.5939 394.76 73.2466C394.504 71.835 394.375 70.4235 394.375 69.012V19.2556C394.375 17.8441 394.504 16.4646 394.76 15.1172C395.017 13.7699 395.755 12.6792 396.974 11.8451C398.193 10.9468 400.278 10.4977 403.229 10.4977C406.181 10.4977 408.234 10.9468 409.389 11.8451C410.608 12.6792 411.346 13.7699 411.602 15.1172C411.859 16.4646 411.987 17.8761 411.987 19.3518V69.1082C411.987 70.5198 411.859 71.8992 411.602 73.2466C411.346 74.5939 410.608 75.7168 409.389 76.615C408.17 77.4491 406.085 77.8661 403.133 77.8661Z"/>
<path d="M427.314 77.8661C424.427 77.8661 422.374 77.4491 421.155 76.615C419.936 75.7168 419.198 74.5939 418.941 73.2466C418.685 71.835 418.556 70.4235 418.556 69.012V19.2556C418.556 17.8441 418.685 16.4646 418.941 15.1172C419.198 13.7699 419.936 12.6792 421.155 11.8451C422.374 10.9468 424.459 10.4977 427.411 10.4977C430.362 10.4977 432.415 10.9468 433.57 11.8451C434.789 12.6792 435.527 13.7699 435.784 15.1172C436.04 16.4646 436.168 17.8761 436.168 19.3518V32.633L452.914 13.4812C454.39 11.8771 455.769 10.7543 457.053 10.1127C458.336 9.47113 459.651 9.34281 460.999 9.72777C462.346 10.1127 463.822 11.0751 465.426 12.615C468.056 14.9889 469.404 17.0741 469.468 18.8706C469.532 20.6671 468.473 22.7203 466.292 25.03L447.429 44.2782L466.388 63.2375C468.762 65.6115 469.853 67.7609 469.66 69.6857C469.532 71.5463 468.152 73.5674 465.522 75.7488C463.597 77.2887 461.961 78.2511 460.614 78.636C459.266 79.021 458.015 78.8606 456.86 78.1548C455.705 77.5132 454.422 76.3584 453.011 74.6902L436.168 55.5383V69.1082C436.168 70.5198 436.04 71.8992 435.784 73.2466C435.527 74.5939 434.789 75.7168 433.57 76.615C432.351 77.4491 430.266 77.8661 427.314 77.8661Z"/>
<path d="M500.493 78.9248C495.809 78.9248 491.414 78.0586 487.308 76.3263C483.265 74.5298 479.705 72.0596 476.625 68.9157C473.545 65.7719 471.107 62.1468 469.311 58.0406C467.578 53.8701 466.712 49.4431 466.712 44.7594C466.712 39.8832 467.546 35.3278 469.214 31.0932C470.947 26.8586 473.321 23.1373 476.336 19.9293C479.352 16.7213 482.848 14.219 486.826 12.4225C490.868 10.626 495.167 9.72777 499.723 9.72777C504.406 9.72777 508.769 10.626 512.811 12.4225C516.918 14.1548 520.511 16.5929 523.59 19.7368C526.67 22.8807 529.076 26.5699 530.808 30.8045C532.541 34.9749 533.407 39.4982 533.407 44.3744C533.407 49.1223 532.541 53.5814 530.808 57.7518C529.14 61.9223 526.766 65.6115 523.687 68.8195C520.671 71.9634 517.174 74.4335 513.196 76.23C509.283 78.0265 505.048 78.9248 500.493 78.9248ZM500.011 61.3127C502.193 61.3127 504.246 60.8957 506.171 60.0616C508.096 59.1634 509.764 57.9764 511.175 56.5007C512.651 54.9609 513.774 53.1644 514.544 51.1112C515.378 48.9939 515.795 46.7483 515.795 44.3744C515.795 42.0005 515.378 39.7869 514.544 37.7338C513.71 35.6807 512.555 33.8842 511.079 32.3443C509.668 30.7403 507.999 29.5213 506.075 28.6872C504.214 27.7889 502.225 27.3398 500.108 27.3398C497.926 27.3398 495.873 27.7889 493.948 28.6872C492.088 29.5213 490.419 30.7403 488.944 32.3443C487.532 33.8842 486.409 35.6807 485.575 37.7338C484.741 39.7869 484.324 42.0005 484.324 44.3744C484.324 46.6842 484.741 48.8656 485.575 50.9188C486.409 52.9719 487.532 54.8005 488.944 56.4045C490.419 57.9443 492.088 59.1634 493.948 60.0616C495.873 60.8957 497.894 61.3127 500.011 61.3127Z"/>
<path d="M547.333 77.8661C544.446 77.8661 542.393 77.4491 541.174 76.615C539.955 75.7168 539.217 74.5939 538.96 73.2466C538.704 71.835 538.575 70.4235 538.575 69.012V19.2556C538.575 17.8441 538.704 16.4646 538.96 15.1172C539.217 13.7699 539.955 12.6792 541.174 11.8451C542.393 10.9468 544.478 10.4977 547.429 10.4977C550.381 10.4977 552.434 10.9468 553.589 11.8451C554.808 12.6792 555.546 13.7699 555.802 15.1172C556.059 16.4646 556.187 17.8761 556.187 19.3518V32.633L572.933 13.4812C574.409 11.8771 575.788 10.7543 577.072 10.1127C578.355 9.47113 579.67 9.34281 581.017 9.72777C582.365 10.1127 583.84 11.0751 585.444 12.615C588.075 14.9889 589.422 17.0741 589.487 18.8706C589.551 20.6671 588.492 22.7203 586.311 25.03L567.447 44.2782L586.407 63.2375C588.781 65.6115 589.872 67.7609 589.679 69.6857C589.551 71.5463 588.171 73.5674 585.541 75.7488C583.616 77.2887 581.98 78.2511 580.632 78.636C579.285 79.021 578.034 78.8606 576.879 78.1548C575.724 77.5132 574.441 76.3584 573.029 74.6902L556.187 55.5383V69.1082C556.187 70.5198 556.059 71.8992 555.802 73.2466C555.546 74.5939 554.808 75.7168 553.589 76.615C552.37 77.4491 550.285 77.8661 547.333 77.8661Z"/>
<path d="M623.547 78.9248C618.671 78.9248 614.372 77.9624 610.651 76.0376C606.994 74.0486 603.914 71.4501 601.412 68.2421C598.91 65.034 597.017 61.5052 595.734 57.6556C594.515 53.806 593.905 49.9884 593.905 46.203V19.2556C593.905 17.7799 594.034 16.3684 594.29 15.021C594.547 13.6736 595.285 12.5829 596.504 11.7488C597.723 10.8506 599.808 10.4015 602.759 10.4015C605.711 10.4015 607.796 10.8506 609.015 11.7488C610.234 12.5829 610.972 13.6736 611.229 15.021C611.485 16.3684 611.614 17.812 611.614 19.3518V46.203C611.614 48.3203 611.966 50.5338 612.672 52.8436C613.378 55.1533 614.597 57.1423 616.329 58.8105C618.126 60.4145 620.628 61.2165 623.836 61.2165C626.274 61.2165 628.392 60.607 630.188 59.3879C631.985 58.1047 633.364 56.3403 634.326 54.0947C635.353 51.7849 635.866 49.1223 635.866 46.1067V18.7744C635.866 17.3629 635.995 16.0476 636.251 14.8285C636.572 13.5453 637.342 12.4867 638.561 11.6526C639.78 10.8185 641.833 10.4015 644.72 10.4015C647.672 10.4015 649.725 10.8506 650.88 11.7488C652.099 12.6471 652.837 13.7699 653.093 15.1172C653.35 16.4646 653.478 17.8761 653.478 19.3518V46.3954C653.478 50.2451 652.837 54.0947 651.553 57.9443C650.27 61.7298 648.345 65.2265 645.779 68.4345C643.277 71.5784 640.165 74.1127 636.444 76.0376C632.722 77.9624 628.424 78.9248 623.547 78.9248Z"/>
</mask>
<path d="M18.3565 77.8661C15.5334 77.8661 13.5124 77.4491 12.2933 76.615C11.0743 75.7168 10.3364 74.5939 10.0798 73.2466C9.82315 71.8992 9.69482 70.4877 9.69482 69.012V19.0631C9.69482 17.6516 9.82315 16.3042 10.0798 15.021C10.3364 13.7378 11.0743 12.6792 12.2933 11.8451C13.5765 11.011 15.6617 10.5939 18.549 10.5939C21.372 10.5939 23.2968 10.9468 24.3234 11.6526C25.35 12.3583 26.2803 13.2566 27.1144 14.3473L51.1745 46.6842V19.0631C51.1745 17.6516 51.3028 16.3042 51.5595 15.021C51.8803 13.7378 52.6502 12.6792 53.8693 11.8451C55.0883 11.011 57.1414 10.5939 60.0287 10.5939C62.98 10.5939 65.0332 11.0431 66.1881 11.9413C67.4071 12.7754 68.145 13.8661 68.4016 15.2135C68.6582 16.5609 68.7866 17.9724 68.7866 19.4481V69.1082C68.7866 70.5198 68.6582 71.8992 68.4016 73.2466C68.145 74.5939 67.4071 75.7168 66.1881 76.615C64.969 77.4491 62.8838 77.8661 59.9324 77.8661C57.751 77.8661 56.0828 77.6736 54.9279 77.2887C53.8372 76.9679 52.9069 76.2942 52.1369 75.2676L27.2106 42.3533V69.1082C27.2106 70.5198 27.0823 71.8992 26.8257 73.2466C26.569 74.5939 25.8312 75.7168 24.6121 76.615C23.3931 77.4491 21.3079 77.8661 18.3565 77.8661Z" fill="#FEF9ED"/>
<path d="M83.8888 77.8661C81.0016 77.8661 78.9485 77.4491 77.7294 76.615C76.5104 75.7168 75.7725 74.5939 75.5159 73.2466C75.2592 71.835 75.1309 70.4235 75.1309 69.012V19.2556C75.1309 15.9193 75.7725 13.6416 77.0557 12.4225C78.4031 11.1393 80.777 10.4977 84.1775 10.4977H119.402C120.877 10.4977 122.257 10.626 123.54 10.8827C124.887 11.1393 125.978 11.8771 126.812 13.0962C127.71 14.3152 128.159 16.4005 128.159 19.3518C128.159 22.2391 127.71 24.2922 126.812 25.5112C125.978 26.7303 124.887 27.4681 123.54 27.7248C122.193 27.9814 120.781 28.1097 119.305 28.1097H92.743V36.6751H110.547C112.023 36.6751 113.338 36.8035 114.493 37.0601C115.648 37.2526 116.579 37.8621 117.284 38.8887C117.99 39.9152 118.343 41.7117 118.343 44.2782C118.343 46.7162 117.99 48.4807 117.284 49.5714C116.579 50.598 115.616 51.2075 114.397 51.4C113.178 51.5924 111.831 51.6887 110.355 51.6887H92.743V60.2541H119.402C120.877 60.2541 122.257 60.3824 123.54 60.6391C124.887 60.8957 125.978 61.6335 126.812 62.8526C127.71 64.0716 128.159 66.1568 128.159 69.1082C128.159 71.9954 127.71 74.0486 126.812 75.2676C125.978 76.4867 124.887 77.2245 123.54 77.4812C122.193 77.7378 120.781 77.8661 119.305 77.8661H83.8888Z" fill="#FEF9ED"/>
<path d="M142.07 77.8661C139.183 77.8661 137.13 77.4491 135.911 76.615C134.692 75.7168 133.954 74.5939 133.697 73.2466C133.44 71.835 133.312 70.4235 133.312 69.012V19.2556C133.312 17.8441 133.44 16.4646 133.697 15.1172C133.954 13.7699 134.692 12.6792 135.911 11.8451C137.13 10.9468 139.215 10.4977 142.166 10.4977C145.118 10.4977 147.171 10.9468 148.326 11.8451C149.545 12.6792 150.283 13.7699 150.539 15.1172C150.796 16.4646 150.924 17.8761 150.924 19.3518V32.633L167.67 13.4812C169.146 11.8771 170.525 10.7543 171.808 10.1127C173.092 9.47113 174.407 9.34281 175.754 9.72777C177.102 10.1127 178.577 11.0751 180.181 12.615C182.812 14.9889 184.159 17.0741 184.223 18.8706C184.288 20.6671 183.229 22.7203 181.047 25.03L162.184 44.2782L181.144 63.2375C183.518 65.6115 184.608 67.7609 184.416 69.6857C184.288 71.5463 182.908 73.5674 180.278 75.7488C178.353 77.2887 176.717 78.2511 175.369 78.636C174.022 79.021 172.771 78.8606 171.616 78.1548C170.461 77.5132 169.178 76.3584 167.766 74.6902L150.924 55.5383V69.1082C150.924 70.5198 150.796 71.8992 150.539 73.2466C150.283 74.5939 149.545 75.7168 148.326 76.615C147.107 77.4491 145.021 77.8661 142.07 77.8661Z" fill="#FEF9ED"/>
<path d="M215.248 78.9248C210.565 78.9248 206.17 78.0586 202.063 76.3263C198.021 74.5298 194.46 72.0596 191.381 68.9157C188.301 65.7719 185.863 62.1468 184.066 58.0406C182.334 53.8701 181.468 49.4431 181.468 44.7594C181.468 39.8832 182.302 35.3278 183.97 31.0932C185.702 26.8586 188.076 23.1373 191.092 19.9293C194.107 16.7213 197.604 14.219 201.582 12.4225C205.624 10.626 209.923 9.72777 214.478 9.72777C219.162 9.72777 223.525 10.626 227.567 12.4225C231.673 14.1548 235.266 16.5929 238.346 19.7368C241.426 22.8807 243.832 26.5699 245.564 30.8045C247.296 34.9749 248.162 39.4982 248.162 44.3744C248.162 49.1223 247.296 53.5814 245.564 57.7518C243.896 61.9223 241.522 65.6115 238.442 68.8195C235.427 71.9634 231.93 74.4335 227.952 76.23C224.038 78.0265 219.804 78.9248 215.248 78.9248ZM214.767 61.3127C216.948 61.3127 219.002 60.8957 220.926 60.0616C222.851 59.1634 224.519 57.9764 225.931 56.5007C227.407 54.9609 228.529 53.1644 229.299 51.1112C230.133 48.9939 230.55 46.7483 230.55 44.3744C230.55 42.0005 230.133 39.7869 229.299 37.7338C228.465 35.6807 227.31 33.8842 225.835 32.3443C224.423 30.7403 222.755 29.5213 220.83 28.6872C218.97 27.7889 216.981 27.3398 214.863 27.3398C212.682 27.3398 210.629 27.7889 208.704 28.6872C206.843 29.5213 205.175 30.7403 203.699 32.3443C202.288 33.8842 201.165 35.6807 200.331 37.7338C199.497 39.7869 199.08 42.0005 199.08 44.3744C199.08 46.6842 199.497 48.8656 200.331 50.9188C201.165 52.9719 202.288 54.8005 203.699 56.4045C205.175 57.9443 206.843 59.1634 208.704 60.0616C210.629 60.8957 212.65 61.3127 214.767 61.3127Z" fill="#FEF9ED"/>
<path d="M324.968 10.4015C326.187 10.4015 327.342 10.4977 328.432 10.6902C329.523 10.8827 330.421 11.4922 331.127 12.5188C331.897 13.5453 332.282 15.3097 332.282 17.812C332.282 20.2501 331.897 22.0145 331.127 23.1052C330.421 24.1318 329.491 24.7413 328.336 24.9338C327.245 25.1263 326.091 25.2225 324.872 25.2225H311.59V69.3007C311.59 70.7122 311.462 72.0917 311.205 73.4391C310.949 74.7223 310.211 75.7809 308.992 76.615C307.837 77.4491 305.784 77.8661 302.832 77.8661C300.009 77.8661 297.988 77.4491 296.769 76.615C295.55 75.7168 294.812 74.626 294.556 73.3428C294.363 71.9954 294.267 70.616 294.267 69.2045V25.2225H280.89C279.735 25.2225 278.58 25.1263 277.425 24.9338C276.334 24.6771 275.404 24.0355 274.634 23.009C273.928 21.9824 273.575 20.218 273.575 17.7157C273.575 15.2776 273.928 13.5453 274.634 12.5188C275.404 11.4922 276.366 10.8827 277.521 10.6902C278.676 10.4977 279.831 10.4015 280.986 10.4015H324.968Z" fill="#FEF9ED"/>
<path d="M346.107 77.8661C343.22 77.8661 341.166 77.4491 339.947 76.615C338.728 75.7168 337.991 74.5939 337.734 73.2466C337.477 71.835 337.349 70.4235 337.349 69.012V19.2556C337.349 15.9193 337.991 13.6416 339.274 12.4225C340.621 11.1393 342.995 10.4977 346.396 10.4977H381.62C383.095 10.4977 384.475 10.626 385.758 10.8827C387.105 11.1393 388.196 11.8771 389.03 13.0962C389.928 14.3152 390.378 16.4005 390.378 19.3518C390.378 22.2391 389.928 24.2922 389.03 25.5112C388.196 26.7303 387.105 27.4681 385.758 27.7248C384.411 27.9814 382.999 28.1097 381.523 28.1097H354.961V36.6751H372.765C374.241 36.6751 375.556 36.8035 376.711 37.0601C377.866 37.2526 378.797 37.8621 379.502 38.8887C380.208 39.9152 380.561 41.7117 380.561 44.2782C380.561 46.7162 380.208 48.4807 379.502 49.5714C378.797 50.598 377.834 51.2075 376.615 51.4C375.396 51.5924 374.049 51.6887 372.573 51.6887H354.961V60.2541H381.62C383.095 60.2541 384.475 60.3824 385.758 60.6391C387.105 60.8957 388.196 61.6335 389.03 62.8526C389.928 64.0716 390.378 66.1568 390.378 69.1082C390.378 71.9954 389.928 74.0486 389.03 75.2676C388.196 76.4867 387.105 77.2245 385.758 77.4812C384.411 77.7378 382.999 77.8661 381.523 77.8661H346.107Z" fill="#FEF9ED"/>
<path d="M403.133 77.8661C400.246 77.8661 398.193 77.4491 396.974 76.615C395.755 75.7168 395.017 74.5939 394.76 73.2466C394.504 71.835 394.375 70.4235 394.375 69.012V19.2556C394.375 17.8441 394.504 16.4646 394.76 15.1172C395.017 13.7699 395.755 12.6792 396.974 11.8451C398.193 10.9468 400.278 10.4977 403.229 10.4977C406.181 10.4977 408.234 10.9468 409.389 11.8451C410.608 12.6792 411.346 13.7699 411.602 15.1172C411.859 16.4646 411.987 17.8761 411.987 19.3518V69.1082C411.987 70.5198 411.859 71.8992 411.602 73.2466C411.346 74.5939 410.608 75.7168 409.389 76.615C408.17 77.4491 406.085 77.8661 403.133 77.8661Z" fill="#FEF9ED"/>
<path d="M427.314 77.8661C424.427 77.8661 422.374 77.4491 421.155 76.615C419.936 75.7168 419.198 74.5939 418.941 73.2466C418.685 71.835 418.556 70.4235 418.556 69.012V19.2556C418.556 17.8441 418.685 16.4646 418.941 15.1172C419.198 13.7699 419.936 12.6792 421.155 11.8451C422.374 10.9468 424.459 10.4977 427.411 10.4977C430.362 10.4977 432.415 10.9468 433.57 11.8451C434.789 12.6792 435.527 13.7699 435.784 15.1172C436.04 16.4646 436.168 17.8761 436.168 19.3518V32.633L452.914 13.4812C454.39 11.8771 455.769 10.7543 457.053 10.1127C458.336 9.47113 459.651 9.34281 460.999 9.72777C462.346 10.1127 463.822 11.0751 465.426 12.615C468.056 14.9889 469.404 17.0741 469.468 18.8706C469.532 20.6671 468.473 22.7203 466.292 25.03L447.429 44.2782L466.388 63.2375C468.762 65.6115 469.853 67.7609 469.66 69.6857C469.532 71.5463 468.152 73.5674 465.522 75.7488C463.597 77.2887 461.961 78.2511 460.614 78.636C459.266 79.021 458.015 78.8606 456.86 78.1548C455.705 77.5132 454.422 76.3584 453.011 74.6902L436.168 55.5383V69.1082C436.168 70.5198 436.04 71.8992 435.784 73.2466C435.527 74.5939 434.789 75.7168 433.57 76.615C432.351 77.4491 430.266 77.8661 427.314 77.8661Z" fill="#FEF9ED"/>
<path d="M500.493 78.9248C495.809 78.9248 491.414 78.0586 487.308 76.3263C483.265 74.5298 479.705 72.0596 476.625 68.9157C473.545 65.7719 471.107 62.1468 469.311 58.0406C467.578 53.8701 466.712 49.4431 466.712 44.7594C466.712 39.8832 467.546 35.3278 469.214 31.0932C470.947 26.8586 473.321 23.1373 476.336 19.9293C479.352 16.7213 482.848 14.219 486.826 12.4225C490.868 10.626 495.167 9.72777 499.723 9.72777C504.406 9.72777 508.769 10.626 512.811 12.4225C516.918 14.1548 520.511 16.5929 523.59 19.7368C526.67 22.8807 529.076 26.5699 530.808 30.8045C532.541 34.9749 533.407 39.4982 533.407 44.3744C533.407 49.1223 532.541 53.5814 530.808 57.7518C529.14 61.9223 526.766 65.6115 523.687 68.8195C520.671 71.9634 517.174 74.4335 513.196 76.23C509.283 78.0265 505.048 78.9248 500.493 78.9248ZM500.011 61.3127C502.193 61.3127 504.246 60.8957 506.171 60.0616C508.096 59.1634 509.764 57.9764 511.175 56.5007C512.651 54.9609 513.774 53.1644 514.544 51.1112C515.378 48.9939 515.795 46.7483 515.795 44.3744C515.795 42.0005 515.378 39.7869 514.544 37.7338C513.71 35.6807 512.555 33.8842 511.079 32.3443C509.668 30.7403 507.999 29.5213 506.075 28.6872C504.214 27.7889 502.225 27.3398 500.108 27.3398C497.926 27.3398 495.873 27.7889 493.948 28.6872C492.088 29.5213 490.419 30.7403 488.944 32.3443C487.532 33.8842 486.409 35.6807 485.575 37.7338C484.741 39.7869 484.324 42.0005 484.324 44.3744C484.324 46.6842 484.741 48.8656 485.575 50.9188C486.409 52.9719 487.532 54.8005 488.944 56.4045C490.419 57.9443 492.088 59.1634 493.948 60.0616C495.873 60.8957 497.894 61.3127 500.011 61.3127Z" fill="#FEF9ED"/>
<path d="M547.333 77.8661C544.446 77.8661 542.393 77.4491 541.174 76.615C539.955 75.7168 539.217 74.5939 538.96 73.2466C538.704 71.835 538.575 70.4235 538.575 69.012V19.2556C538.575 17.8441 538.704 16.4646 538.96 15.1172C539.217 13.7699 539.955 12.6792 541.174 11.8451C542.393 10.9468 544.478 10.4977 547.429 10.4977C550.381 10.4977 552.434 10.9468 553.589 11.8451C554.808 12.6792 555.546 13.7699 555.802 15.1172C556.059 16.4646 556.187 17.8761 556.187 19.3518V32.633L572.933 13.4812C574.409 11.8771 575.788 10.7543 577.072 10.1127C578.355 9.47113 579.67 9.34281 581.017 9.72777C582.365 10.1127 583.84 11.0751 585.444 12.615C588.075 14.9889 589.422 17.0741 589.487 18.8706C589.551 20.6671 588.492 22.7203 586.311 25.03L567.447 44.2782L586.407 63.2375C588.781 65.6115 589.872 67.7609 589.679 69.6857C589.551 71.5463 588.171 73.5674 585.541 75.7488C583.616 77.2887 581.98 78.2511 580.632 78.636C579.285 79.021 578.034 78.8606 576.879 78.1548C575.724 77.5132 574.441 76.3584 573.029 74.6902L556.187 55.5383V69.1082C556.187 70.5198 556.059 71.8992 555.802 73.2466C555.546 74.5939 554.808 75.7168 553.589 76.615C552.37 77.4491 550.285 77.8661 547.333 77.8661Z" fill="#FEF9ED"/>
<path d="M623.547 78.9248C618.671 78.9248 614.372 77.9624 610.651 76.0376C606.994 74.0486 603.914 71.4501 601.412 68.2421C598.91 65.034 597.017 61.5052 595.734 57.6556C594.515 53.806 593.905 49.9884 593.905 46.203V19.2556C593.905 17.7799 594.034 16.3684 594.29 15.021C594.547 13.6736 595.285 12.5829 596.504 11.7488C597.723 10.8506 599.808 10.4015 602.759 10.4015C605.711 10.4015 607.796 10.8506 609.015 11.7488C610.234 12.5829 610.972 13.6736 611.229 15.021C611.485 16.3684 611.614 17.812 611.614 19.3518V46.203C611.614 48.3203 611.966 50.5338 612.672 52.8436C613.378 55.1533 614.597 57.1423 616.329 58.8105C618.126 60.4145 620.628 61.2165 623.836 61.2165C626.274 61.2165 628.392 60.607 630.188 59.3879C631.985 58.1047 633.364 56.3403 634.326 54.0947C635.353 51.7849 635.866 49.1223 635.866 46.1067V18.7744C635.866 17.3629 635.995 16.0476 636.251 14.8285C636.572 13.5453 637.342 12.4867 638.561 11.6526C639.78 10.8185 641.833 10.4015 644.72 10.4015C647.672 10.4015 649.725 10.8506 650.88 11.7488C652.099 12.6471 652.837 13.7699 653.093 15.1172C653.35 16.4646 653.478 17.8761 653.478 19.3518V46.3954C653.478 50.2451 652.837 54.0947 651.553 57.9443C650.27 61.7298 648.345 65.2265 645.779 68.4345C643.277 71.5784 640.165 74.1127 636.444 76.0376C632.722 77.9624 628.424 78.9248 623.547 78.9248Z" fill="#FEF9ED"/>
<path d="M18.3565 77.8661C15.5334 77.8661 13.5124 77.4491 12.2933 76.615C11.0743 75.7168 10.3364 74.5939 10.0798 73.2466C9.82315 71.8992 9.69482 70.4877 9.69482 69.012V19.0631C9.69482 17.6516 9.82315 16.3042 10.0798 15.021C10.3364 13.7378 11.0743 12.6792 12.2933 11.8451C13.5765 11.011 15.6617 10.5939 18.549 10.5939C21.372 10.5939 23.2968 10.9468 24.3234 11.6526C25.35 12.3583 26.2803 13.2566 27.1144 14.3473L51.1745 46.6842V19.0631C51.1745 17.6516 51.3028 16.3042 51.5595 15.021C51.8803 13.7378 52.6502 12.6792 53.8693 11.8451C55.0883 11.011 57.1414 10.5939 60.0287 10.5939C62.98 10.5939 65.0332 11.0431 66.1881 11.9413C67.4071 12.7754 68.145 13.8661 68.4016 15.2135C68.6582 16.5609 68.7866 17.9724 68.7866 19.4481V69.1082C68.7866 70.5198 68.6582 71.8992 68.4016 73.2466C68.145 74.5939 67.4071 75.7168 66.1881 76.615C64.969 77.4491 62.8838 77.8661 59.9324 77.8661C57.751 77.8661 56.0828 77.6736 54.9279 77.2887C53.8372 76.9679 52.9069 76.2942 52.1369 75.2676L27.2106 42.3533V69.1082C27.2106 70.5198 27.0823 71.8992 26.8257 73.2466C26.569 74.5939 25.8312 75.7168 24.6121 76.615C23.3931 77.4491 21.3079 77.8661 18.3565 77.8661Z" stroke="#EB5E5E" stroke-width="18.0451" mask="url(#path-1-outside-1_666_862)"/>
<path d="M83.8888 77.8661C81.0016 77.8661 78.9485 77.4491 77.7294 76.615C76.5104 75.7168 75.7725 74.5939 75.5159 73.2466C75.2592 71.835 75.1309 70.4235 75.1309 69.012V19.2556C75.1309 15.9193 75.7725 13.6416 77.0557 12.4225C78.4031 11.1393 80.777 10.4977 84.1775 10.4977H119.402C120.877 10.4977 122.257 10.626 123.54 10.8827C124.887 11.1393 125.978 11.8771 126.812 13.0962C127.71 14.3152 128.159 16.4005 128.159 19.3518C128.159 22.2391 127.71 24.2922 126.812 25.5112C125.978 26.7303 124.887 27.4681 123.54 27.7248C122.193 27.9814 120.781 28.1097 119.305 28.1097H92.743V36.6751H110.547C112.023 36.6751 113.338 36.8035 114.493 37.0601C115.648 37.2526 116.579 37.8621 117.284 38.8887C117.99 39.9152 118.343 41.7117 118.343 44.2782C118.343 46.7162 117.99 48.4807 117.284 49.5714C116.579 50.598 115.616 51.2075 114.397 51.4C113.178 51.5924 111.831 51.6887 110.355 51.6887H92.743V60.2541H119.402C120.877 60.2541 122.257 60.3824 123.54 60.6391C124.887 60.8957 125.978 61.6335 126.812 62.8526C127.71 64.0716 128.159 66.1568 128.159 69.1082C128.159 71.9954 127.71 74.0486 126.812 75.2676C125.978 76.4867 124.887 77.2245 123.54 77.4812C122.193 77.7378 120.781 77.8661 119.305 77.8661H83.8888Z" stroke="#EB5E5E" stroke-width="18.0451" mask="url(#path-1-outside-1_666_862)"/>
<path d="M142.07 77.8661C139.183 77.8661 137.13 77.4491 135.911 76.615C134.692 75.7168 133.954 74.5939 133.697 73.2466C133.44 71.835 133.312 70.4235 133.312 69.012V19.2556C133.312 17.8441 133.44 16.4646 133.697 15.1172C133.954 13.7699 134.692 12.6792 135.911 11.8451C137.13 10.9468 139.215 10.4977 142.166 10.4977C145.118 10.4977 147.171 10.9468 148.326 11.8451C149.545 12.6792 150.283 13.7699 150.539 15.1172C150.796 16.4646 150.924 17.8761 150.924 19.3518V32.633L167.67 13.4812C169.146 11.8771 170.525 10.7543 171.808 10.1127C173.092 9.47113 174.407 9.34281 175.754 9.72777C177.102 10.1127 178.577 11.0751 180.181 12.615C182.812 14.9889 184.159 17.0741 184.223 18.8706C184.288 20.6671 183.229 22.7203 181.047 25.03L162.184 44.2782L181.144 63.2375C183.518 65.6115 184.608 67.7609 184.416 69.6857C184.288 71.5463 182.908 73.5674 180.278 75.7488C178.353 77.2887 176.717 78.2511 175.369 78.636C174.022 79.021 172.771 78.8606 171.616 78.1548C170.461 77.5132 169.178 76.3584 167.766 74.6902L150.924 55.5383V69.1082C150.924 70.5198 150.796 71.8992 150.539 73.2466C150.283 74.5939 149.545 75.7168 148.326 76.615C147.107 77.4491 145.021 77.8661 142.07 77.8661Z" stroke="#EB5E5E" stroke-width="18.0451" mask="url(#path-1-outside-1_666_862)"/>
<path d="M215.248 78.9248C210.565 78.9248 206.17 78.0586 202.063 76.3263C198.021 74.5298 194.46 72.0596 191.381 68.9157C188.301 65.7719 185.863 62.1468 184.066 58.0406C182.334 53.8701 181.468 49.4431 181.468 44.7594C181.468 39.8832 182.302 35.3278 183.97 31.0932C185.702 26.8586 188.076 23.1373 191.092 19.9293C194.107 16.7213 197.604 14.219 201.582 12.4225C205.624 10.626 209.923 9.72777 214.478 9.72777C219.162 9.72777 223.525 10.626 227.567 12.4225C231.673 14.1548 235.266 16.5929 238.346 19.7368C241.426 22.8807 243.832 26.5699 245.564 30.8045C247.296 34.9749 248.162 39.4982 248.162 44.3744C248.162 49.1223 247.296 53.5814 245.564 57.7518C243.896 61.9223 241.522 65.6115 238.442 68.8195C235.427 71.9634 231.93 74.4335 227.952 76.23C224.038 78.0265 219.804 78.9248 215.248 78.9248ZM214.767 61.3127C216.948 61.3127 219.002 60.8957 220.926 60.0616C222.851 59.1634 224.519 57.9764 225.931 56.5007C227.407 54.9609 228.529 53.1644 229.299 51.1112C230.133 48.9939 230.55 46.7483 230.55 44.3744C230.55 42.0005 230.133 39.7869 229.299 37.7338C228.465 35.6807 227.31 33.8842 225.835 32.3443C224.423 30.7403 222.755 29.5213 220.83 28.6872C218.97 27.7889 216.981 27.3398 214.863 27.3398C212.682 27.3398 210.629 27.7889 208.704 28.6872C206.843 29.5213 205.175 30.7403 203.699 32.3443C202.288 33.8842 201.165 35.6807 200.331 37.7338C199.497 39.7869 199.08 42.0005 199.08 44.3744C199.08 46.6842 199.497 48.8656 200.331 50.9188C201.165 52.9719 202.288 54.8005 203.699 56.4045C205.175 57.9443 206.843 59.1634 208.704 60.0616C210.629 60.8957 212.65 61.3127 214.767 61.3127Z" stroke="#EB5E5E" stroke-width="18.0451" mask="url(#path-1-outside-1_666_862)"/>
<path d="M324.968 10.4015C326.187 10.4015 327.342 10.4977 328.432 10.6902C329.523 10.8827 330.421 11.4922 331.127 12.5188C331.897 13.5453 332.282 15.3097 332.282 17.812C332.282 20.2501 331.897 22.0145 331.127 23.1052C330.421 24.1318 329.491 24.7413 328.336 24.9338C327.245 25.1263 326.091 25.2225 324.872 25.2225H311.59V69.3007C311.59 70.7122 311.462 72.0917 311.205 73.4391C310.949 74.7223 310.211 75.7809 308.992 76.615C307.837 77.4491 305.784 77.8661 302.832 77.8661C300.009 77.8661 297.988 77.4491 296.769 76.615C295.55 75.7168 294.812 74.626 294.556 73.3428C294.363 71.9954 294.267 70.616 294.267 69.2045V25.2225H280.89C279.735 25.2225 278.58 25.1263 277.425 24.9338C276.334 24.6771 275.404 24.0355 274.634 23.009C273.928 21.9824 273.575 20.218 273.575 17.7157C273.575 15.2776 273.928 13.5453 274.634 12.5188C275.404 11.4922 276.366 10.8827 277.521 10.6902C278.676 10.4977 279.831 10.4015 280.986 10.4015H324.968Z" stroke="#EB5E5E" stroke-width="18.0451" mask="url(#path-1-outside-1_666_862)"/>
<path d="M346.107 77.8661C343.22 77.8661 341.166 77.4491 339.947 76.615C338.728 75.7168 337.991 74.5939 337.734 73.2466C337.477 71.835 337.349 70.4235 337.349 69.012V19.2556C337.349 15.9193 337.991 13.6416 339.274 12.4225C340.621 11.1393 342.995 10.4977 346.396 10.4977H381.62C383.095 10.4977 384.475 10.626 385.758 10.8827C387.105 11.1393 388.196 11.8771 389.03 13.0962C389.928 14.3152 390.378 16.4005 390.378 19.3518C390.378 22.2391 389.928 24.2922 389.03 25.5112C388.196 26.7303 387.105 27.4681 385.758 27.7248C384.411 27.9814 382.999 28.1097 381.523 28.1097H354.961V36.6751H372.765C374.241 36.6751 375.556 36.8035 376.711 37.0601C377.866 37.2526 378.797 37.8621 379.502 38.8887C380.208 39.9152 380.561 41.7117 380.561 44.2782C380.561 46.7162 380.208 48.4807 379.502 49.5714C378.797 50.598 377.834 51.2075 376.615 51.4C375.396 51.5924 374.049 51.6887 372.573 51.6887H354.961V60.2541H381.62C383.095 60.2541 384.475 60.3824 385.758 60.6391C387.105 60.8957 388.196 61.6335 389.03 62.8526C389.928 64.0716 390.378 66.1568 390.378 69.1082C390.378 71.9954 389.928 74.0486 389.03 75.2676C388.196 76.4867 387.105 77.2245 385.758 77.4812C384.411 77.7378 382.999 77.8661 381.523 77.8661H346.107Z" stroke="#EB5E5E" stroke-width="18.0451" mask="url(#path-1-outside-1_666_862)"/>
<path d="M403.133 77.8661C400.246 77.8661 398.193 77.4491 396.974 76.615C395.755 75.7168 395.017 74.5939 394.76 73.2466C394.504 71.835 394.375 70.4235 394.375 69.012V19.2556C394.375 17.8441 394.504 16.4646 394.76 15.1172C395.017 13.7699 395.755 12.6792 396.974 11.8451C398.193 10.9468 400.278 10.4977 403.229 10.4977C406.181 10.4977 408.234 10.9468 409.389 11.8451C410.608 12.6792 411.346 13.7699 411.602 15.1172C411.859 16.4646 411.987 17.8761 411.987 19.3518V69.1082C411.987 70.5198 411.859 71.8992 411.602 73.2466C411.346 74.5939 410.608 75.7168 409.389 76.615C408.17 77.4491 406.085 77.8661 403.133 77.8661Z" stroke="#EB5E5E" stroke-width="18.0451" mask="url(#path-1-outside-1_666_862)"/>
<path d="M427.314 77.8661C424.427 77.8661 422.374 77.4491 421.155 76.615C419.936 75.7168 419.198 74.5939 418.941 73.2466C418.685 71.835 418.556 70.4235 418.556 69.012V19.2556C418.556 17.8441 418.685 16.4646 418.941 15.1172C419.198 13.7699 419.936 12.6792 421.155 11.8451C422.374 10.9468 424.459 10.4977 427.411 10.4977C430.362 10.4977 432.415 10.9468 433.57 11.8451C434.789 12.6792 435.527 13.7699 435.784 15.1172C436.04 16.4646 436.168 17.8761 436.168 19.3518V32.633L452.914 13.4812C454.39 11.8771 455.769 10.7543 457.053 10.1127C458.336 9.47113 459.651 9.34281 460.999 9.72777C462.346 10.1127 463.822 11.0751 465.426 12.615C468.056 14.9889 469.404 17.0741 469.468 18.8706C469.532 20.6671 468.473 22.7203 466.292 25.03L447.429 44.2782L466.388 63.2375C468.762 65.6115 469.853 67.7609 469.66 69.6857C469.532 71.5463 468.152 73.5674 465.522 75.7488C463.597 77.2887 461.961 78.2511 460.614 78.636C459.266 79.021 458.015 78.8606 456.86 78.1548C455.705 77.5132 454.422 76.3584 453.011 74.6902L436.168 55.5383V69.1082C436.168 70.5198 436.04 71.8992 435.784 73.2466C435.527 74.5939 434.789 75.7168 433.57 76.615C432.351 77.4491 430.266 77.8661 427.314 77.8661Z" stroke="#EB5E5E" stroke-width="18.0451" mask="url(#path-1-outside-1_666_862)"/>
<path d="M500.493 78.9248C495.809 78.9248 491.414 78.0586 487.308 76.3263C483.265 74.5298 479.705 72.0596 476.625 68.9157C473.545 65.7719 471.107 62.1468 469.311 58.0406C467.578 53.8701 466.712 49.4431 466.712 44.7594C466.712 39.8832 467.546 35.3278 469.214 31.0932C470.947 26.8586 473.321 23.1373 476.336 19.9293C479.352 16.7213 482.848 14.219 486.826 12.4225C490.868 10.626 495.167 9.72777 499.723 9.72777C504.406 9.72777 508.769 10.626 512.811 12.4225C516.918 14.1548 520.511 16.5929 523.59 19.7368C526.67 22.8807 529.076 26.5699 530.808 30.8045C532.541 34.9749 533.407 39.4982 533.407 44.3744C533.407 49.1223 532.541 53.5814 530.808 57.7518C529.14 61.9223 526.766 65.6115 523.687 68.8195C520.671 71.9634 517.174 74.4335 513.196 76.23C509.283 78.0265 505.048 78.9248 500.493 78.9248ZM500.011 61.3127C502.193 61.3127 504.246 60.8957 506.171 60.0616C508.096 59.1634 509.764 57.9764 511.175 56.5007C512.651 54.9609 513.774 53.1644 514.544 51.1112C515.378 48.9939 515.795 46.7483 515.795 44.3744C515.795 42.0005 515.378 39.7869 514.544 37.7338C513.71 35.6807 512.555 33.8842 511.079 32.3443C509.668 30.7403 507.999 29.5213 506.075 28.6872C504.214 27.7889 502.225 27.3398 500.108 27.3398C497.926 27.3398 495.873 27.7889 493.948 28.6872C492.088 29.5213 490.419 30.7403 488.944 32.3443C487.532 33.8842 486.409 35.6807 485.575 37.7338C484.741 39.7869 484.324 42.0005 484.324 44.3744C484.324 46.6842 484.741 48.8656 485.575 50.9188C486.409 52.9719 487.532 54.8005 488.944 56.4045C490.419 57.9443 492.088 59.1634 493.948 60.0616C495.873 60.8957 497.894 61.3127 500.011 61.3127Z" stroke="#EB5E5E" stroke-width="18.0451" mask="url(#path-1-outside-1_666_862)"/>
<path d="M547.333 77.8661C544.446 77.8661 542.393 77.4491 541.174 76.615C539.955 75.7168 539.217 74.5939 538.96 73.2466C538.704 71.835 538.575 70.4235 538.575 69.012V19.2556C538.575 17.8441 538.704 16.4646 538.96 15.1172C539.217 13.7699 539.955 12.6792 541.174 11.8451C542.393 10.9468 544.478 10.4977 547.429 10.4977C550.381 10.4977 552.434 10.9468 553.589 11.8451C554.808 12.6792 555.546 13.7699 555.802 15.1172C556.059 16.4646 556.187 17.8761 556.187 19.3518V32.633L572.933 13.4812C574.409 11.8771 575.788 10.7543 577.072 10.1127C578.355 9.47113 579.67 9.34281 581.017 9.72777C582.365 10.1127 583.84 11.0751 585.444 12.615C588.075 14.9889 589.422 17.0741 589.487 18.8706C589.551 20.6671 588.492 22.7203 586.311 25.03L567.447 44.2782L586.407 63.2375C588.781 65.6115 589.872 67.7609 589.679 69.6857C589.551 71.5463 588.171 73.5674 585.541 75.7488C583.616 77.2887 581.98 78.2511 580.632 78.636C579.285 79.021 578.034 78.8606 576.879 78.1548C575.724 77.5132 574.441 76.3584 573.029 74.6902L556.187 55.5383V69.1082C556.187 70.5198 556.059 71.8992 555.802 73.2466C555.546 74.5939 554.808 75.7168 553.589 76.615C552.37 77.4491 550.285 77.8661 547.333 77.8661Z" stroke="#EB5E5E" stroke-width="18.0451" mask="url(#path-1-outside-1_666_862)"/>
<path d="M623.547 78.9248C618.671 78.9248 614.372 77.9624 610.651 76.0376C606.994 74.0486 603.914 71.4501 601.412 68.2421C598.91 65.034 597.017 61.5052 595.734 57.6556C594.515 53.806 593.905 49.9884 593.905 46.203V19.2556C593.905 17.7799 594.034 16.3684 594.29 15.021C594.547 13.6736 595.285 12.5829 596.504 11.7488C597.723 10.8506 599.808 10.4015 602.759 10.4015C605.711 10.4015 607.796 10.8506 609.015 11.7488C610.234 12.5829 610.972 13.6736 611.229 15.021C611.485 16.3684 611.614 17.812 611.614 19.3518V46.203C611.614 48.3203 611.966 50.5338 612.672 52.8436C613.378 55.1533 614.597 57.1423 616.329 58.8105C618.126 60.4145 620.628 61.2165 623.836 61.2165C626.274 61.2165 628.392 60.607 630.188 59.3879C631.985 58.1047 633.364 56.3403 634.326 54.0947C635.353 51.7849 635.866 49.1223 635.866 46.1067V18.7744C635.866 17.3629 635.995 16.0476 636.251 14.8285C636.572 13.5453 637.342 12.4867 638.561 11.6526C639.78 10.8185 641.833 10.4015 644.72 10.4015C647.672 10.4015 649.725 10.8506 650.88 11.7488C652.099 12.6471 652.837 13.7699 653.093 15.1172C653.35 16.4646 653.478 17.8761 653.478 19.3518V46.3954C653.478 50.2451 652.837 54.0947 651.553 57.9443C650.27 61.7298 648.345 65.2265 645.779 68.4345C643.277 71.5784 640.165 74.1127 636.444 76.0376C632.722 77.9624 628.424 78.9248 623.547 78.9248Z" stroke="#EB5E5E" stroke-width="18.0451" mask="url(#path-1-outside-1_666_862)"/>
</svg>
