<svg width="40" height="63" viewBox="0 0 40 63" fill="none" xmlns="http://www.w3.org/2000/svg">
<path d="M6.12318 60.345L6.11955 60.3435C4.63621 59.7065 3.64373 58.8743 3.00859 57.899C2.37197 56.9213 2 55.6548 2 53.9955L2 9.00452C2 7.34521 2.37197 6.07866 3.00859 5.10103C3.64374 4.12566 4.63621 3.29347 6.11956 2.65654L6.12319 2.65497C7.60318 2.016 8.86543 1.8793 9.96979 2.09569C11.0759 2.31242 12.2084 2.91965 13.3651 4.08177L35.9738 26.7957C36.6843 27.5094 37.1837 28.248 37.5082 29.0087C37.8318 29.7672 38 30.5909 38 31.5C38 32.4091 37.8318 33.2328 37.5082 33.9913C37.1837 34.752 36.6843 35.4906 35.9738 36.2043L13.3651 58.9182C12.2084 60.0804 11.0759 60.6876 9.96978 60.9043C8.86543 61.1207 7.60318 60.984 6.12318 60.345Z" fill="#F48989" stroke="#EB5E5E" stroke-width="4"/>
</svg>
