<svg width="40" height="63" viewBox="0 0 40 63" fill="none" xmlns="http://www.w3.org/2000/svg">
<path d="M14.7826 2.67085L37.3913 25.3847C38.2609 26.2583 38.913 27.2047 39.3478 28.224C39.7826 29.2432 40 30.3352 40 31.5C40 32.6648 39.7826 33.7568 39.3478 34.776C38.913 35.7953 38.2609 36.7417 37.3913 37.6153L14.7826 60.3292C12.029 63.0956 8.87826 63.7129 5.33044 62.1812C1.77681 60.6553 2.27623e-06 57.9267 2.61991e-06 53.9955L6.55315e-06 9.00453C6.89683e-06 5.07328 1.77682 2.3447 5.33044 0.818792C8.87827 -0.712939 12.029 -0.0955879 14.7826 2.67085Z" fill="#EB5E5E"/>
</svg>
