<svg width="24" height="25" viewBox="0 0 24 25" fill="none" xmlns="http://www.w3.org/2000/svg">
<path fill-rule="evenodd" clip-rule="evenodd" d="M2.35902 9.68146C1.76676 8.94113 1.65901 7.924 2.083 7.076L2.25671 6.72858C2.76112 5.71976 3.98784 5.31085 4.99666 5.81526C5.53396 6.08392 6.16229 6.10238 6.71445 5.86574L7.49841 5.52976C8.3871 5.14889 8.96329 4.27506 8.96329 3.3082C8.96329 1.97334 10.0454 0.891226 11.3803 0.891226H11.8322C13.2011 0.891226 14.3109 2.00101 14.3109 3.36999C14.3109 4.30888 14.8414 5.16718 15.6812 5.58706L15.9506 5.7218C16.6101 6.05151 17.377 6.09177 18.0673 5.8329L18.465 5.68376C19.6164 5.25198 20.8999 5.83536 21.3316 6.98678C21.6641 7.87326 21.3996 8.87301 20.6722 9.47911L20.5822 9.55413C19.7698 10.2312 19.4985 11.3615 19.9151 12.3335L20.3864 13.4333C20.495 13.6867 20.6334 13.9261 20.7987 14.1466L21.0942 14.5405C21.5906 15.2023 21.7306 16.0655 21.469 16.8503L21.2908 17.3851C20.8997 18.5583 19.5602 19.1131 18.4541 18.5601C17.5971 18.1315 16.5571 18.36 15.9585 19.1082L15.5569 19.6101C15.3228 19.9028 15.1492 20.2392 15.0462 20.5996L14.8852 21.1632C14.5453 22.3528 13.4579 23.173 12.2206 23.173C11.0655 23.173 10.0315 22.4565 9.6259 21.3749L9.50839 21.0615C9.16361 20.1421 8.42208 19.4275 7.49053 19.117L7.0975 18.986C6.57113 18.8105 6.00402 18.7982 5.47053 18.9506C4.15115 19.3276 2.75561 18.6755 2.19832 17.4216L2.02614 17.0342C1.64137 16.1685 1.82952 15.1552 2.49942 14.4853C2.9288 14.0559 3.17003 13.4735 3.17003 12.8663V11.7056C3.17003 11.0516 2.94742 10.417 2.53882 9.90621L2.35902 9.68146ZM11.6371 15.1516C13.1138 15.1516 14.3109 13.9545 14.3109 12.4778C14.3109 11.0011 13.1138 9.80394 11.6371 9.80394C10.1604 9.80394 8.96329 11.0011 8.96329 12.4778C8.96329 13.9545 10.1604 15.1516 11.6371 15.1516Z" fill="white"/>
<path d="M10.6288 24.8756C9.26359 24.8756 8.112 23.859 7.94267 22.5043L7.84686 21.7379C7.78203 21.2192 7.4266 20.7945 6.98037 20.5224C6.5339 20.2511 5.98587 20.1796 5.50423 20.382L4.83579 20.6628C3.54614 21.2047 2.05474 20.7036 1.35386 19.493L0.367328 17.789C-0.322529 16.5975 -0.0163357 15.0786 1.0813 14.2474L2.02587 13.5321C2.23344 13.3749 2.33112 13.1173 2.33112 12.857V12.0174C2.33112 11.7578 2.23381 11.501 2.02686 11.3443L1.0813 10.6283C-0.0163358 9.79703 -0.322529 8.27817 0.367327 7.0866L1.35386 5.38259C2.05474 4.17198 3.54614 3.67092 4.83579 4.21279L5.49263 4.48877C5.98147 4.69417 6.53729 4.62041 6.9953 4.35323C7.44129 4.09307 7.78109 3.66391 7.84513 3.15158L7.9389 2.40144C8.11039 1.02953 9.27662 0 10.6592 0H12.6901C14.0554 0 15.207 1.0166 15.3763 2.37128L15.472 3.13668C15.5369 3.65595 15.8926 4.08148 16.3398 4.35323C16.7853 4.62488 17.3327 4.69617 17.8138 4.49405L18.4832 4.21279C19.7728 3.67092 21.2642 4.17198 21.9651 5.38258L22.9516 7.0866C23.6415 8.27817 23.3353 9.79703 22.2376 10.6283L21.2921 11.3443C21.0851 11.501 20.9878 11.7578 20.9878 12.0174V12.857C20.9878 13.114 21.0607 13.3796 21.2655 13.5348L22.324 14.3363C23.3546 15.1167 23.642 16.5428 22.9943 17.6615L21.925 19.5086C21.2298 20.7094 19.749 21.2044 18.4715 20.663L17.8253 20.3892C17.3373 20.1825 16.7815 20.2553 16.3237 20.5224C15.8777 20.7826 15.5379 21.2117 15.4738 21.724L15.3801 22.4742C15.2086 23.8461 14.0423 24.8756 12.6597 24.8756H10.6288ZM11.7217 16.791C12.924 16.791 13.9501 16.3661 14.8 15.5162C15.6499 14.6663 16.0749 13.6401 16.0749 12.4378C16.0749 11.2355 15.6499 10.2094 14.8 9.35945C13.9501 8.50954 12.924 8.08458 11.7217 8.08458C10.4986 8.08458 9.46711 8.50954 8.62714 9.35945C7.788 10.2094 7.36843 11.2355 7.36843 12.4378C7.36843 13.6401 7.788 14.6663 8.62714 15.5162C9.46711 16.3661 10.4986 16.791 11.7217 16.791ZM11.7217 14.3035C11.2034 14.3035 10.7631 14.1219 10.4008 13.7587C10.0376 13.3964 9.856 12.9561 9.856 12.4378C9.856 11.9196 10.0376 11.4793 10.4008 11.1169C10.7631 10.7537 11.2034 10.5721 11.7217 10.5721C12.2399 10.5721 12.6806 10.7537 13.0438 11.1169C13.4062 11.4793 13.5873 11.9196 13.5873 12.4378C13.5873 12.9561 13.4062 13.3964 13.0438 13.7587C12.6806 14.1219 12.2399 14.3035 11.7217 14.3035ZM10.2655 21.1633C10.3512 21.8626 10.9451 22.3881 11.6497 22.3881C12.3493 22.3881 12.9406 21.8697 13.0322 21.1761L13.1182 20.5254C13.2326 19.6592 13.8777 18.9788 14.6621 18.5938C14.8098 18.5212 14.9545 18.4436 15.096 18.3607C15.2322 18.2811 15.3654 18.1974 15.4958 18.1095C16.2179 17.6229 17.128 17.4125 17.9325 17.7457L18.5568 18.0042C19.2001 18.2706 19.9413 18.0178 20.2877 17.4138C20.6346 16.809 20.4777 16.0406 19.9215 15.6203L18.9745 14.9045C18.5257 14.5653 18.3662 13.9745 18.4381 13.4167C18.4795 13.0958 18.5003 12.7695 18.5003 12.4378C18.5003 12.1061 18.4795 11.7794 18.4381 11.4577C18.3661 10.9006 18.5254 10.3106 18.9735 9.97187L19.9257 9.25218C20.4795 8.83361 20.6357 8.06858 20.2903 7.46641C19.9432 6.86105 19.1984 6.61059 18.556 6.88313L17.951 7.13977C17.14 7.48384 16.2184 7.26129 15.4911 6.76409C15.3622 6.67597 15.2305 6.5925 15.096 6.51368C14.9542 6.43089 14.8093 6.35325 14.6612 6.28078C13.8785 5.89754 13.2377 5.21476 13.1316 4.34969L13.0535 3.71237C12.9677 3.01306 12.3738 2.48756 11.6693 2.48756C10.9697 2.48756 10.3783 3.00593 10.2867 3.69952L10.2008 4.35021C10.0864 5.21646 9.44127 5.89682 8.65677 6.28158C8.50947 6.35382 8.36526 6.43119 8.22415 6.51368C8.08755 6.59363 7.95383 6.67772 7.82301 6.76596C7.10113 7.25287 6.19093 7.46312 5.38645 7.12996L4.75796 6.86967C4.11702 6.60423 3.37865 6.85608 3.03351 7.45787C2.686 8.06378 2.84623 8.83382 3.40658 9.25083L4.32893 9.93722C4.78819 10.279 4.95653 10.8753 4.88087 11.4428C4.83941 11.7537 4.81868 12.0854 4.81868 12.4378C4.81868 12.7695 4.83941 13.0908 4.88087 13.4017C4.95664 13.97 4.79059 14.5673 4.33321 14.913L3.39326 15.6234C2.83947 16.042 2.68325 16.807 3.02861 17.4092C3.3758 18.0146 4.12057 18.265 4.763 17.9925L5.36792 17.7359C6.17896 17.3918 7.1005 17.6145 7.82846 18.1108C7.95754 18.1988 8.08944 18.2821 8.22415 18.3607C8.36568 18.4436 8.51032 18.5214 8.65807 18.594C9.44032 18.9783 10.0812 19.6609 10.1873 20.5259L10.2655 21.1633Z" fill="#EF9771"/>
</svg>
